Format : AVI
Format/Info : Audio Video Interleave
Format profile : OpenDML
File size : 699 MiB
Duration : 1h 30mn
Overall bit rate : 1 080 Kbps
Writing application : AVI-Mux GUI 1.16.11, Dec 15 2004 14:51:34

Video
ID : 0
Format : MPEG-4 Visual
Format profile : Advanced Simple@L5
Format settings, BVOP : 2
Format settings, QPel : No
Format settings, GMC : No warppoints
Format settings, Matrix : Default (H.263)
Muxing mode : Packed bitstream
Codec ID : XVID
Codec ID/Hint : XviD
Duration : 1h 30mn
Bit rate : 944 Kbps
Width : 640 pixels
Height : 320 pixels
Display aspect ratio : 2.000
Frame rate : 23.976 fps
Color space : YUV
Chroma subsampling : 4:2:0
Bit depth : 8 bits
Scan type : Progressive
Compression mode : Lossy
Bits/(Pixel*Frame) : 0.192
Stream size : 610 MiB (87%)
Writing library : XviD 1.2.1 (UTC 2008-12-04)

Audio
ID : 1
Format : MPEG Audio
Format version : Version 1
Format profile : Layer 3
Mode : Joint stereo
Mode extension : MS Stereo
Codec ID : 55
Codec ID/Hint : MP3
Duration : 1h 30mn
Bit rate mode : Constant
Bit rate : 128 Kbps
Channel(s) : 2 channels
Sampling rate : 48.0 KHz
Compression mode : Lossy
Stream size : 82.7 MiB (12%)
Alignment : Aligned on interleaves
Interleave, duration : 24 ms (0.58 video frame)
Interleave, preload duration : 192 ms
Title : English - 3LT0N
Writing library : LAME3.97
Encoding settings : -m j -V 4 -q 2 -lowpass 17 -b 128
 
http://i.imgur.com/9H7hFKl.png 
http://i.imgur.com/3HQ6NQD.png 
http://i.imgur.com/EyVMpO7.png